# Blender v2.93.18 OBJ File: 'Cubo _rubik.blend'
# www.blender.org
mtllib Cubo _rubik.mtl
v -1.000000 0.369176 -0.369176
v -1.000000 0.964158 -0.369176
v -1.000000 0.964158 -0.964158
v -1.000000 0.369176 -0.964158
v 0.369176 0.369176 -1.000000
v 0.369176 0.964158 -1.000000
v 0.964158 0.964158 -1.000000
v 0.964158 0.369176 -1.000000
v 1.000000 0.369176 0.369176
v 1.000000 0.964158 0.369176
v 1.000000 0.964158 0.964158
v 1.000000 0.369176 0.964158
v -0.369176 0.369176 1.000000
v -0.369176 0.964158 1.000000
v -0.964158 0.964158 1.000000
v -0.964158 0.369176 1.000000
v 0.369176 -1.000000 0.369176
v 0.964158 -1.000000 0.369176
v 0.964158 -1.000000 0.964158
v 0.369176 -1.000000 0.964158
v -0.369176 1.000000 0.369176
v -0.964158 1.000000 0.369176
v -0.964158 1.000000 0.964158
v -0.369176 1.000000 0.964158
v 0.964158 1.000000 0.369176
v 0.369176 1.000000 0.369176
v 0.369176 1.000000 0.964158
v 0.964158 1.000000 0.964158
v 0.297491 1.000000 0.369176
v -0.297491 1.000000 0.369176
v -0.297491 1.000000 0.964158
v 0.297491 1.000000 0.964158
v 0.964158 1.000000 -0.964158
v 0.369176 1.000000 -0.964158
v 0.369176 1.000000 -0.369176
v 0.964158 1.000000 -0.369176
v 0.964158 1.000000 -0.297491
v 0.369176 1.000000 -0.297491
v 0.369176 1.000000 0.297491
v 0.964158 1.000000 0.297491
v 0.297491 1.000000 -0.964158
v -0.297491 1.000000 -0.964158
v -0.297491 1.000000 -0.369176
v 0.297491 1.000000 -0.369176
v 0.297491 1.000000 -0.297491
v -0.297491 1.000000 -0.297491
v -0.297491 1.000000 0.297491
v 0.297491 1.000000 0.297491
v -0.369176 1.000000 -0.964158
v -0.964158 1.000000 -0.964158
v -0.964158 1.000000 -0.369176
v -0.369176 1.000000 -0.369176
v -0.369176 1.000000 -0.297491
v -0.964158 1.000000 -0.297491
v -0.964158 1.000000 0.297491
v -0.369176 1.000000 0.297491
v -0.964158 -1.000000 0.369176
v -0.369176 -1.000000 0.369176
v -0.369176 -1.000000 0.964158
v -0.964158 -1.000000 0.964158
v -0.297491 -1.000000 0.369176
v 0.297491 -1.000000 0.369176
v 0.297491 -1.000000 0.964158
v -0.297491 -1.000000 0.964158
v -0.964158 -1.000000 -0.964158
v -0.369176 -1.000000 -0.964158
v -0.369176 -1.000000 -0.369176
v -0.964158 -1.000000 -0.369176
v -0.964158 -1.000000 -0.297491
v -0.369176 -1.000000 -0.297491
v -0.369176 -1.000000 0.297491
v -0.964158 -1.000000 0.297491
v -0.297491 -1.000000 -0.964158
v 0.297491 -1.000000 -0.964158
v 0.297491 -1.000000 -0.369176
v -0.297491 -1.000000 -0.369176
v -0.297491 -1.000000 -0.297491
v 0.297491 -1.000000 -0.297491
v 0.297491 -1.000000 0.297491
v -0.297491 -1.000000 0.297491
v 0.369176 -1.000000 -0.964158
v 0.964158 -1.000000 -0.964158
v 0.964158 -1.000000 -0.369176
v 0.369176 -1.000000 -0.369176
v 0.369176 -1.000000 -0.297491
v 0.964158 -1.000000 -0.297491
v 0.964158 -1.000000 0.297491
v 0.369176 -1.000000 0.297491
v -0.369176 -0.964158 1.000000
v -0.369176 -0.369176 1.000000
v -0.964158 -0.369176 1.000000
v -0.964158 -0.964158 1.000000
v -0.369176 -0.297491 1.000000
v -0.369176 0.297491 1.000000
v -0.964158 0.297491 1.000000
v -0.964158 -0.297491 1.000000
v 0.964158 -0.964158 1.000000
v 0.964158 -0.369176 1.000000
v 0.369176 -0.369176 1.000000
v 0.369176 -0.964158 1.000000
v 0.297491 -0.964158 1.000000
v 0.297491 -0.369176 1.000000
v -0.297491 -0.369176 1.000000
v -0.297491 -0.964158 1.000000
v 0.964158 -0.297491 1.000000
v 0.964158 0.297491 1.000000
v 0.369176 0.297491 1.000000
v 0.369176 -0.297491 1.000000
v 0.297491 -0.297491 1.000000
v 0.297491 0.297491 1.000000
v -0.297491 0.297491 1.000000
v -0.297491 -0.297491 1.000000
v 0.964158 0.369176 1.000000
v 0.964158 0.964158 1.000000
v 0.369176 0.964158 1.000000
v 0.369176 0.369176 1.000000
v 0.297491 0.369176 1.000000
v 0.297491 0.964158 1.000000
v -0.297491 0.964158 1.000000
v -0.297491 0.369176 1.000000
v 1.000000 -0.964158 0.369176
v 1.000000 -0.369176 0.369176
v 1.000000 -0.369176 0.964158
v 1.000000 -0.964158 0.964158
v 1.000000 -0.297491 0.369176
v 1.000000 0.297491 0.369176
v 1.000000 0.297491 0.964158
v 1.000000 -0.297491 0.964158
v 1.000000 -0.964158 -0.964158
v 1.000000 -0.369176 -0.964158
v 1.000000 -0.369176 -0.369176
v 1.000000 -0.964158 -0.369176
v 1.000000 -0.964158 -0.297491
v 1.000000 -0.369176 -0.297491
v 1.000000 -0.369176 0.297491
v 1.000000 -0.964158 0.297491
v 1.000000 -0.297491 -0.964158
v 1.000000 0.297491 -0.964158
v 1.000000 0.297491 -0.369176
v 1.000000 -0.297491 -0.369176
v 1.000000 -0.297491 -0.297491
v 1.000000 0.297491 -0.297491
v 1.000000 0.297491 0.297491
v 1.000000 -0.297491 0.297491
v 1.000000 0.369176 -0.964158
v 1.000000 0.964158 -0.964158
v 1.000000 0.964158 -0.369176
v 1.000000 0.369176 -0.369176
v 1.000000 0.369176 -0.297491
v 1.000000 0.964158 -0.297491
v 1.000000 0.964158 0.297491
v 1.000000 0.369176 0.297491
v 0.369176 -0.964158 -1.000000
v 0.369176 -0.369176 -1.000000
v 0.964158 -0.369176 -1.000000
v 0.964158 -0.964158 -1.000000
v 0.369176 -0.297491 -1.000000
v 0.369176 0.297491 -1.000000
v 0.964158 0.297491 -1.000000
v 0.964158 -0.297491 -1.000000
v -0.964158 -0.964158 -1.000000
v -0.964158 -0.369176 -1.000000
v -0.369176 -0.369176 -1.000000
v -0.369176 -0.964158 -1.000000
v -0.297491 -0.964158 -1.000000
v -0.297491 -0.369176 -1.000000
v 0.297491 -0.369176 -1.000000
v 0.297491 -0.964158 -1.000000
v -0.964158 -0.297491 -1.000000
v -0.964158 0.297491 -1.000000
v -0.369176 0.297491 -1.000000
v -0.369176 -0.297491 -1.000000
v -0.297491 -0.297491 -1.000000
v -0.297491 0.297491 -1.000000
v 0.297491 0.297491 -1.000000
v 0.297491 -0.297491 -1.000000
v -0.964158 0.369176 -1.000000
v -0.964158 0.964158 -1.000000
v -0.369176 0.964158 -1.000000
v -0.369176 0.369176 -1.000000
v -0.297491 0.369176 -1.000000
v -0.297491 0.964158 -1.000000
v 0.297491 0.964158 -1.000000
v 0.297491 0.369176 -1.000000
v -1.000000 -0.964158 -0.369176
v -1.000000 -0.369176 -0.369176
v -1.000000 -0.369176 -0.964158
v -1.000000 -0.964158 -0.964158
v -1.000000 -0.297491 -0.369176
v -1.000000 0.297491 -0.369176
v -1.000000 0.297491 -0.964158
v -1.000000 -0.297491 -0.964158
v -1.000000 -0.964158 0.964158
v -1.000000 -0.369176 0.964158
v -1.000000 -0.369176 0.369176
v -1.000000 -0.964158 0.369176
v -1.000000 -0.964158 0.297491
v -1.000000 -0.369176 0.297491
v -1.000000 -0.369176 -0.297491
v -1.000000 -0.964158 -0.297491
v -1.000000 -0.297491 0.964158
v -1.000000 0.297491 0.964158
v -1.000000 0.297491 0.369176
v -1.000000 -0.297491 0.369176
v -1.000000 -0.297491 0.297491
v -1.000000 0.297491 0.297491
v -1.000000 0.297491 -0.297491
v -1.000000 -0.297491 -0.297491
v -1.000000 0.369176 0.964158
v -1.000000 0.964158 0.964158
v -1.000000 0.964158 0.369176
v -1.000000 0.369176 0.369176
v -1.000000 0.369176 0.297491
v -1.000000 0.964158 0.297491
v -1.000000 0.964158 -0.297491
v -1.000000 0.369176 -0.297491
v -1.016607 0.964158 -0.369176
v -1.016607 0.369176 -0.369176
v -1.016607 0.369176 -0.964158
v -1.016607 0.964158 -0.964158
v 0.369176 0.964158 -1.016607
v 0.369176 0.369176 -1.016607
v 0.964158 0.369176 -1.016607
v 0.964158 0.964158 -1.016607
v 1.016607 0.964158 0.369176
v 1.016607 0.369176 0.369176
v 1.016607 0.369176 0.964158
v 1.016607 0.964158 0.964158
v -0.369176 0.964158 1.016607
v -0.369176 0.369176 1.016607
v -0.964158 0.369176 1.016607
v -0.964158 0.964158 1.016607
v 0.964158 -1.016607 0.369176
v 0.369176 -1.016607 0.369176
v 0.369176 -1.016607 0.964158
v 0.964158 -1.016607 0.964158
v -0.964158 1.016607 0.369176
v -0.369176 1.016607 0.369176
v -0.369176 1.016607 0.964158
v -0.964158 1.016607 0.964158
v 0.369176 1.016607 0.369176
v 0.964158 1.016607 0.369176
v 0.964158 1.016607 0.964158
v 0.369176 1.016607 0.964158
v -0.297491 1.016607 0.369176
v 0.297491 1.016607 0.369176
v 0.297491 1.016607 0.964158
v -0.297491 1.016607 0.964158
v 0.369176 1.016607 -0.964158
v 0.964158 1.016607 -0.964158
v 0.964158 1.016607 -0.369176
v 0.369176 1.016607 -0.369176
v 0.369176 1.016607 -0.297491
v 0.964158 1.016607 -0.297491
v 0.964158 1.016607 0.297491
v 0.369176 1.016607 0.297491
v -0.297491 1.016607 -0.964158
v 0.297491 1.016607 -0.964158
v 0.297491 1.016607 -0.369176
v -0.297491 1.016607 -0.369176
v -0.297491 1.016607 -0.297491
v 0.297491 1.016607 -0.297491
v 0.297491 1.016607 0.297491
v -0.297491 1.016607 0.297491
v -0.964158 1.016607 -0.964158
v -0.369176 1.016607 -0.964158
v -0.369176 1.016607 -0.369176
v -0.964158 1.016607 -0.369176
v -0.964158 1.016607 -0.297491
v -0.369176 1.016607 -0.297491
v -0.369176 1.016607 0.297491
v -0.964158 1.016607 0.297491
v -0.369176 -1.016607 0.369176
v -0.964158 -1.016607 0.369176
v -0.964158 -1.016607 0.964158
v -0.369176 -1.016607 0.964158
v 0.297491 -1.016607 0.369176
v -0.297491 -1.016607 0.369176
v -0.297491 -1.016607 0.964158
v 0.297491 -1.016607 0.964158
v -0.369176 -1.016607 -0.964158
v -0.964158 -1.016607 -0.964158
v -0.964158 -1.016607 -0.369176
v -0.369176 -1.016607 -0.369176
v -0.369176 -1.016607 -0.297491
v -0.964158 -1.016607 -0.297491
v -0.964158 -1.016607 0.297491
v -0.369176 -1.016607 0.297491
v 0.297491 -1.016607 -0.964158
v -0.297491 -1.016607 -0.964158
v -0.297491 -1.016607 -0.369176
v 0.297491 -1.016607 -0.369176
v 0.297491 -1.016607 -0.297491
v -0.297491 -1.016607 -0.297491
v -0.297491 -1.016607 0.297491
v 0.297491 -1.016607 0.297491
v 0.964158 -1.016607 -0.964158
v 0.369176 -1.016607 -0.964158
v 0.369176 -1.016607 -0.369176
v 0.964158 -1.016607 -0.369176
v 0.964158 -1.016607 -0.297491
v 0.369176 -1.016607 -0.297491
v 0.369176 -1.016607 0.297491
v 0.964158 -1.016607 0.297491
v -0.369176 -0.369176 1.016607
v -0.369176 -0.964158 1.016607
v -0.964158 -0.964158 1.016607
v -0.964158 -0.369176 1.016607
v -0.369176 0.297491 1.016607
v -0.369176 -0.297491 1.016607
v -0.964158 -0.297491 1.016607
v -0.964158 0.297491 1.016607
v 0.964158 -0.369176 1.016607
v 0.964158 -0.964158 1.016607
v 0.369176 -0.964158 1.016607
v 0.369176 -0.369176 1.016607
v 0.297491 -0.369176 1.016607
v 0.297491 -0.964158 1.016607
v -0.297491 -0.964158 1.016607
v -0.297491 -0.369176 1.016607
v 0.964158 0.297491 1.016607
v 0.964158 -0.297491 1.016607
v 0.369176 -0.297491 1.016607
v 0.369176 0.297491 1.016607
v 0.297491 0.297491 1.016607
v 0.297491 -0.297491 1.016607
v -0.297491 -0.297491 1.016607
v -0.297491 0.297491 1.016607
v 0.964158 0.964158 1.016607
v 0.964158 0.369176 1.016607
v 0.369176 0.369176 1.016607
v 0.369176 0.964158 1.016607
v 0.297491 0.964158 1.016607
v 0.297491 0.369176 1.016607
v -0.297491 0.369176 1.016607
v -0.297491 0.964158 1.016607
v 1.016607 -0.369176 0.369176
v 1.016607 -0.964158 0.369176
v 1.016607 -0.964158 0.964158
v 1.016607 -0.369176 0.964158
v 1.016607 0.297491 0.369176
v 1.016607 -0.297491 0.369176
v 1.016607 -0.297491 0.964158
v 1.016607 0.297491 0.964158
v 1.016607 -0.369176 -0.964158
v 1.016607 -0.964158 -0.964158
v 1.016607 -0.964158 -0.369176
v 1.016607 -0.369176 -0.369176
v 1.016607 -0.369176 -0.297491
v 1.016607 -0.964158 -0.297491
v 1.016607 -0.964158 0.297491
v 1.016607 -0.369176 0.297491
v 1.016607 0.297491 -0.964158
v 1.016607 -0.297491 -0.964158
v 1.016607 -0.297491 -0.369176
v 1.016607 0.297491 -0.369176
v 1.016607 0.297491 -0.297491
v 1.016607 -0.297491 -0.297491
v 1.016607 -0.297491 0.297491
v 1.016607 0.297491 0.297491
v 1.016607 0.964158 -0.964158
v 1.016607 0.369176 -0.964158
v 1.016607 0.369176 -0.369176
v 1.016607 0.964158 -0.369176
v 1.016607 0.964158 -0.297491
v 1.016607 0.369176 -0.297491
v 1.016607 0.369176 0.297491
v 1.016607 0.964158 0.297491
v 0.369176 -0.369176 -1.016607
v 0.369176 -0.964158 -1.016607
v 0.964158 -0.964158 -1.016607
v 0.964158 -0.369176 -1.016607
v 0.369176 0.297491 -1.016607
v 0.369176 -0.297491 -1.016607
v 0.964158 -0.297491 -1.016607
v 0.964158 0.297491 -1.016607
v -0.964158 -0.369176 -1.016607
v -0.964158 -0.964158 -1.016607
v -0.369176 -0.964158 -1.016607
v -0.369176 -0.369176 -1.016607
v -0.297491 -0.369176 -1.016607
v -0.297491 -0.964158 -1.016607
v 0.297491 -0.964158 -1.016607
v 0.297491 -0.369176 -1.016607
v -0.964158 0.297491 -1.016607
v -0.964158 -0.297491 -1.016607
v -0.369176 -0.297491 -1.016607
v -0.369176 0.297491 -1.016607
v -0.297491 0.297491 -1.016607
v -0.297491 -0.297491 -1.016607
v 0.297491 -0.297491 -1.016607
v 0.297491 0.297491 -1.016607
v -0.964158 0.964158 -1.016607
v -0.964158 0.369176 -1.016607
v -0.369176 0.369176 -1.016607
v -0.369176 0.964158 -1.016607
v -0.297491 0.964158 -1.016607
v -0.297491 0.369176 -1.016607
v 0.297491 0.369176 -1.016607
v 0.297491 0.964158 -1.016607
v -1.016607 -0.369176 -0.369176
v -1.016607 -0.964158 -0.369176
v -1.016607 -0.964158 -0.964158
v -1.016607 -0.369176 -0.964158
v -1.016607 0.297491 -0.369176
v -1.016607 -0.297491 -0.369176
v -1.016607 -0.297491 -0.964158
v -1.016607 0.297491 -0.964158
v -1.016607 -0.964158 0.964158
v -1.016607 -0.369176 0.964158
v -1.016607 -0.964158 0.369176
v -1.016607 -0.369176 0.369176
v -1.016607 -0.369176 0.297491
v -1.016607 -0.964158 0.297491
v -1.016607 -0.964158 -0.297491
v -1.016607 -0.369176 -0.297491
v -1.016607 -0.297491 0.964158
v -1.016607 0.297491 0.964158
v -1.016607 -0.297491 0.369176
v -1.016607 0.297491 0.369176
v -1.016607 0.297491 0.297491
v -1.016607 -0.297491 0.297491
v -1.016607 -0.297491 -0.297491
v -1.016607 0.297491 -0.297491
v -1.016607 0.369176 0.964158
v -1.016607 0.964158 0.964158
v -1.016607 0.369176 0.369176
v -1.016607 0.964158 0.369176
v -1.016607 0.964158 0.297491
v -1.016607 0.369176 0.297491
v -1.016607 0.369176 -0.297491
v -1.016607 0.964158 -0.297491
v -1.000000 -1.000000 1.000000
v -1.000000 1.000000 1.000000
v -1.000000 -1.000000 -1.000000
v -1.000000 1.000000 -1.000000
v 1.000000 -1.000000 1.000000
v 1.000000 1.000000 1.000000
v 1.000000 -1.000000 -1.000000
v 1.000000 1.000000 -1.000000
v -1.000000 -1.000000 -0.333333
v -1.000000 -1.000000 0.333333
v -1.000000 -0.333333 1.000000
v -1.000000 0.333333 1.000000
v -1.000000 1.000000 0.333333
v -1.000000 1.000000 -0.333333
v -1.000000 0.333333 -1.000000
v -1.000000 -0.333333 -1.000000
v 0.333333 -1.000000 -1.000000
v -0.333333 -1.000000 -1.000000
v -0.333333 1.000000 -1.000000
v 0.333333 1.000000 -1.000000
v 1.000000 0.333333 -1.000000
v 1.000000 -0.333333 -1.000000
v 1.000000 -1.000000 0.333333
v 1.000000 -1.000000 -0.333333
v 1.000000 1.000000 -0.333333
v 1.000000 1.000000 0.333333
v 1.000000 0.333333 1.000000
v 1.000000 -0.333333 1.000000
v -0.333333 -1.000000 1.000000
v 0.333333 -1.000000 1.000000
v 0.333333 1.000000 1.000000
v -0.333333 1.000000 1.000000
v 0.333333 1.000000 -0.333333
v 0.333333 1.000000 0.333333
v -0.333333 1.000000 -0.333333
v -0.333333 1.000000 0.333333
v -0.333333 -1.000000 -0.333333
v -0.333333 -1.000000 0.333333
v 0.333333 -1.000000 -0.333333
v 0.333333 -1.000000 0.333333
v 0.333333 -0.333333 1.000000
v -0.333333 -0.333333 1.000000
v 0.333333 0.333333 1.000000
v -0.333333 0.333333 1.000000
v 1.000000 -0.333333 -0.333333
v 1.000000 -0.333333 0.333333
v 1.000000 0.333333 -0.333333
v 1.000000 0.333333 0.333333
v -0.333333 -0.333333 -1.000000
v 0.333333 -0.333333 -1.000000
v -0.333333 0.333333 -1.000000
v 0.333333 0.333333 -1.000000
v -1.000000 -0.333333 0.333333
v -1.000000 -0.333333 -0.333333
v -1.000000 0.333333 0.333333
v -1.000000 0.333333 -0.333333
v -1.000000 0.369176 -0.369176
v -1.000000 0.964158 -0.369176
v -1.000000 0.964158 -0.964158
v -1.000000 0.369176 -0.964158
v 0.369176 0.369176 -1.000000
v 0.369176 0.964158 -1.000000
v 0.964158 0.964158 -1.000000
v 0.964158 0.369176 -1.000000
v 1.000000 0.369176 0.369176
v 1.000000 0.964158 0.369176
v 1.000000 0.964158 0.964158
v 1.000000 0.369176 0.964158
v -0.369176 0.369176 1.000000
v -0.369176 0.964158 1.000000
v -0.964158 0.964158 1.000000
v -0.964158 0.369176 1.000000
v 0.369176 -1.000000 0.369176
v 0.964158 -1.000000 0.369176
v 0.964158 -1.000000 0.964158
v 0.369176 -1.000000 0.964158
v -0.369176 1.000000 0.369176
v -0.964158 1.000000 0.369176
v -0.964158 1.000000 0.964158
v -0.369176 1.000000 0.964158
v 0.964158 1.000000 0.369176
v 0.369176 1.000000 0.369176
v 0.369176 1.000000 0.964158
v 0.964158 1.000000 0.964158
v 0.297491 1.000000 0.369176
v -0.297491 1.000000 0.369176
v -0.297491 1.000000 0.964158
v 0.297491 1.000000 0.964158
v 0.964158 1.000000 -0.964158
v 0.369176 1.000000 -0.964158
v 0.369176 1.000000 -0.369176
v 0.964158 1.000000 -0.369176
v 0.964158 1.000000 -0.297491
v 0.369176 1.000000 -0.297491
v 0.369176 1.000000 0.297491
v 0.964158 1.000000 0.297491
v 0.297491 1.000000 -0.964158
v -0.297491 1.000000 -0.964158
v -0.297491 1.000000 -0.369176
v 0.297491 1.000000 -0.369176
v 0.297491 1.000000 -0.297491
v -0.297491 1.000000 -0.297491
v -0.297491 1.000000 0.297491
v 0.297491 1.000000 0.297491
v -0.369176 1.000000 -0.964158
v -0.964158 1.000000 -0.964158
v -0.964158 1.000000 -0.369176
v -0.369176 1.000000 -0.369176
v -0.369176 1.000000 -0.297491
v -0.964158 1.000000 -0.297491
v -0.964158 1.000000 0.297491
v -0.369176 1.000000 0.297491
v -0.964158 -1.000000 0.369176
v -0.369176 -1.000000 0.369176
v -0.369176 -1.000000 0.964158
v -0.964158 -1.000000 0.964158
v -0.297491 -1.000000 0.369176
v 0.297491 -1.000000 0.369176
v 0.297491 -1.000000 0.964158
v -0.297491 -1.000000 0.964158
v -0.964158 -1.000000 -0.964158
v -0.369176 -1.000000 -0.964158
v -0.369176 -1.000000 -0.369176
v -0.964158 -1.000000 -0.369176
v -0.964158 -1.000000 -0.297491
v -0.369176 -1.000000 -0.297491
v -0.369176 -1.000000 0.297491
v -0.964158 -1.000000 0.297491
v -0.297491 -1.000000 -0.964158
v 0.297491 -1.000000 -0.964158
v 0.297491 -1.000000 -0.369176
v -0.297491 -1.000000 -0.369176
v -0.297491 -1.000000 -0.297491
v 0.297491 -1.000000 -0.297491
v 0.297491 -1.000000 0.297491
v -0.297491 -1.000000 0.297491
v 0.369176 -1.000000 -0.964158
v 0.964158 -1.000000 -0.964158
v 0.964158 -1.000000 -0.369176
v 0.369176 -1.000000 -0.369176
v 0.369176 -1.000000 -0.297491
v 0.964158 -1.000000 -0.297491
v 0.964158 -1.000000 0.297491
v 0.369176 -1.000000 0.297491
v -0.369176 -0.964158 1.000000
v -0.369176 -0.369176 1.000000
v -0.964158 -0.369176 1.000000
v -0.964158 -0.964158 1.000000
v -0.369176 -0.297491 1.000000
v -0.369176 0.297491 1.000000
v -0.964158 0.297491 1.000000
v -0.964158 -0.297491 1.000000
v 0.964158 -0.964158 1.000000
v 0.964158 -0.369176 1.000000
v 0.369176 -0.369176 1.000000
v 0.369176 -0.964158 1.000000
v 0.297491 -0.964158 1.000000
v 0.297491 -0.369176 1.000000
v -0.297491 -0.369176 1.000000
v -0.297491 -0.964158 1.000000
v 0.964158 -0.297491 1.000000
v 0.964158 0.297491 1.000000
v 0.369176 0.297491 1.000000
v 0.369176 -0.297491 1.000000
v 0.297491 -0.297491 1.000000
v 0.297491 0.297491 1.000000
v -0.297491 0.297491 1.000000
v -0.297491 -0.297491 1.000000
v 0.964158 0.369176 1.000000
v 0.964158 0.964158 1.000000
v 0.369176 0.964158 1.000000
v 0.369176 0.369176 1.000000
v 0.297491 0.369176 1.000000
v 0.297491 0.964158 1.000000
v -0.297491 0.964158 1.000000
v -0.297491 0.369176 1.000000
v 1.000000 -0.964158 0.369176
v 1.000000 -0.369176 0.369176
v 1.000000 -0.369176 0.964158
v 1.000000 -0.964158 0.964158
v 1.000000 -0.297491 0.369176
v 1.000000 0.297491 0.369176
v 1.000000 0.297491 0.964158
v 1.000000 -0.297491 0.964158
v 1.000000 -0.964158 -0.964158
v 1.000000 -0.369176 -0.964158
v 1.000000 -0.369176 -0.369176
v 1.000000 -0.964158 -0.369176
v 1.000000 -0.964158 -0.297491
v 1.000000 -0.369176 -0.297491
v 1.000000 -0.369176 0.297491
v 1.000000 -0.964158 0.297491
v 1.000000 -0.297491 -0.964158
v 1.000000 0.297491 -0.964158
v 1.000000 0.297491 -0.369176
v 1.000000 -0.297491 -0.369176
v 1.000000 -0.297491 -0.297491
v 1.000000 0.297491 -0.297491
v 1.000000 0.297491 0.297491
v 1.000000 -0.297491 0.297491
v 1.000000 0.369176 -0.964158
v 1.000000 0.964158 -0.964158
v 1.000000 0.964158 -0.369176
v 1.000000 0.369176 -0.369176
v 1.000000 0.369176 -0.297491
v 1.000000 0.964158 -0.297491
v 1.000000 0.964158 0.297491
v 1.000000 0.369176 0.297491
v 0.369176 -0.964158 -1.000000
v 0.369176 -0.369176 -1.000000
v 0.964158 -0.369176 -1.000000
v 0.964158 -0.964158 -1.000000
v 0.369176 -0.297491 -1.000000
v 0.369176 0.297491 -1.000000
v 0.964158 0.297491 -1.000000
v 0.964158 -0.297491 -1.000000
v -0.964158 -0.964158 -1.000000
v -0.964158 -0.369176 -1.000000
v -0.369176 -0.369176 -1.000000
v -0.369176 -0.964158 -1.000000
v -0.297491 -0.964158 -1.000000
v -0.297491 -0.369176 -1.000000
v 0.297491 -0.369176 -1.000000
v 0.297491 -0.964158 -1.000000
v -0.964158 -0.297491 -1.000000
v -0.964158 0.297491 -1.000000
v -0.369176 0.297491 -1.000000
v -0.369176 -0.297491 -1.000000
v -0.297491 -0.297491 -1.000000
v -0.297491 0.297491 -1.000000
v 0.297491 0.297491 -1.000000
v 0.297491 -0.297491 -1.000000
v -0.964158 0.369176 -1.000000
v -0.964158 0.964158 -1.000000
v -0.369176 0.964158 -1.000000
v -0.369176 0.369176 -1.000000
v -0.297491 0.369176 -1.000000
v -0.297491 0.964158 -1.000000
v 0.297491 0.964158 -1.000000
v 0.297491 0.369176 -1.000000
v -1.000000 -0.964158 -0.369176
v -1.000000 -0.369176 -0.369176
v -1.000000 -0.369176 -0.964158
v -1.000000 -0.964158 -0.964158
v -1.000000 -0.297491 -0.369176
v -1.000000 0.297491 -0.369176
v -1.000000 0.297491 -0.964158
v -1.000000 -0.297491 -0.964158
v -1.000000 -0.964158 0.964158
v -1.000000 -0.369176 0.964158
v -1.000000 -0.369176 0.369176
v -1.000000 -0.964158 0.369176
v -1.000000 -0.964158 0.297491
v -1.000000 -0.369176 0.297491
v -1.000000 -0.369176 -0.297491
v -1.000000 -0.964158 -0.297491
v -1.000000 -0.297491 0.964158
v -1.000000 0.297491 0.964158
v -1.000000 0.297491 0.369176
v -1.000000 -0.297491 0.369176
v -1.000000 -0.297491 0.297491
v -1.000000 0.297491 0.297491
v -1.000000 0.297491 -0.297491
v -1.000000 -0.297491 -0.297491
v -1.000000 0.369176 0.964158
v -1.000000 0.964158 0.964158
v -1.000000 0.964158 0.369176
v -1.000000 0.369176 0.369176
v -1.000000 0.369176 0.297491
v -1.000000 0.964158 0.297491
v -1.000000 0.964158 -0.297491
v -1.000000 0.369176 -0.297491
vt 0.796147 0.671147
vt 0.796147 0.745520
vt 0.870520 0.745520
vt 0.870520 0.671147
vt 0.629480 0.671147
vt 0.629480 0.745520
vt 0.703853 0.745520
vt 0.703853 0.671147
vt 0.712813 0.671147
vt 0.712813 0.745520
vt 0.787186 0.745520
vt 0.787186 0.671147
vt 0.629480 0.504480
vt 0.629480 0.578853
vt 0.703853 0.578853
vt 0.703853 0.504480
vt 0.629480 0.587814
vt 0.629480 0.662186
vt 0.703853 0.662186
vt 0.703853 0.587814
vt 0.712813 0.504480
vt 0.712813 0.578853
vt 0.787186 0.578853
vt 0.787186 0.504480
vt 0.712813 0.587814
vt 0.712813 0.662186
vt 0.787186 0.662186
vt 0.787186 0.587814
vt 0.796147 0.504480
vt 0.796147 0.578853
vt 0.870520 0.578853
vt 0.870520 0.504480
vt 0.796147 0.587814
vt 0.796147 0.662186
vt 0.870520 0.662186
vt 0.870520 0.587814
vt 0.796147 0.671147
vt 0.870520 0.671147
vt 0.870520 0.745520
vt 0.796147 0.745520
vt 0.629480 0.671147
vt 0.703853 0.671147
vt 0.703853 0.745520
vt 0.629480 0.745520
vt 0.712813 0.671147
vt 0.787186 0.671147
vt 0.787186 0.745520
vt 0.712813 0.745520
vt 0.629480 0.504480
vt 0.703853 0.504480
vt 0.703853 0.578853
vt 0.629480 0.578853
vt 0.629480 0.587814
vt 0.703853 0.587814
vt 0.703853 0.662186
vt 0.629480 0.662186
vt 0.712813 0.504480
vt 0.787186 0.504480
vt 0.787186 0.578853
vt 0.712813 0.578853
vt 0.712813 0.587814
vt 0.787186 0.587814
vt 0.787186 0.662186
vt 0.712813 0.662186
vt 0.796147 0.504480
vt 0.870520 0.504480
vt 0.870520 0.578853
vt 0.796147 0.578853
vt 0.796147 0.587814
vt 0.870520 0.587814
vt 0.870520 0.662186
vt 0.796147 0.662186
vt 0.546147 0.671147
vt 0.546147 0.745520
vt 0.620520 0.745520
vt 0.620520 0.671147
vt 0.379480 0.671147
vt 0.379480 0.745520
vt 0.453853 0.745520
vt 0.453853 0.671147
vt 0.462814 0.671147
vt 0.462814 0.745520
vt 0.537186 0.745520
vt 0.537186 0.671147
vt 0.379480 0.504480
vt 0.379480 0.578853
vt 0.453853 0.578853
vt 0.453853 0.504480
vt 0.379480 0.587814
vt 0.379480 0.662186
vt 0.453853 0.662186
vt 0.453853 0.587814
vt 0.462814 0.504480
vt 0.462814 0.578853
vt 0.537186 0.578853
vt 0.537186 0.504480
vt 0.462814 0.587814
vt 0.462814 0.662186
vt 0.537186 0.662186
vt 0.537186 0.587814
vt 0.546147 0.504480
vt 0.546147 0.578853
vt 0.620520 0.578853
vt 0.620520 0.504480
vt 0.546147 0.587814
vt 0.546147 0.662186
vt 0.620520 0.662186
vt 0.620520 0.587814
vt 0.546147 0.671147
vt 0.620520 0.671147
vt 0.620520 0.745520
vt 0.546147 0.745520
vt 0.379480 0.671147
vt 0.453853 0.671147
vt 0.453853 0.745520
vt 0.379480 0.745520
vt 0.462814 0.671147
vt 0.537186 0.671147
vt 0.537186 0.745520
vt 0.462814 0.745520
vt 0.379480 0.504480
vt 0.453853 0.504480
vt 0.453853 0.578853
vt 0.379480 0.578853
vt 0.379480 0.587814
vt 0.453853 0.587814
vt 0.453853 0.662186
vt 0.379480 0.662186
vt 0.462814 0.504480
vt 0.537186 0.504480
vt 0.537186 0.578853
vt 0.462814 0.578853
vt 0.462814 0.587814
vt 0.537186 0.587814
vt 0.537186 0.662186
vt 0.462814 0.662186
vt 0.546147 0.504480
vt 0.620520 0.504480
vt 0.620520 0.578853
vt 0.546147 0.578853
vt 0.546147 0.587814
vt 0.620520 0.587814
vt 0.620520 0.662186
vt 0.546147 0.662186
vt 0.546147 0.921147
vt 0.546147 0.995520
vt 0.620520 0.995520
vt 0.620520 0.921147
vt 0.379480 0.921147
vt 0.379480 0.995520
vt 0.453853 0.995520
vt 0.453853 0.921147
vt 0.462814 0.921147
vt 0.462814 0.995520
vt 0.537186 0.995520
vt 0.537186 0.921147
vt 0.379480 0.754480
vt 0.379480 0.828853
vt 0.453853 0.828853
vt 0.453853 0.754480
vt 0.379480 0.837813
vt 0.379480 0.912186
vt 0.453853 0.912186
vt 0.453853 0.837814
vt 0.462814 0.754480
vt 0.462814 0.828853
vt 0.537186 0.828853
vt 0.537186 0.754480
vt 0.462814 0.837814
vt 0.462814 0.912186
vt 0.537186 0.912186
vt 0.537186 0.837814
vt 0.546147 0.754480
vt 0.546147 0.828853
vt 0.620520 0.828853
vt 0.620520 0.754480
vt 0.546147 0.837814
vt 0.546147 0.912186
vt 0.620520 0.912186
vt 0.620520 0.837813
vt 0.546147 0.921147
vt 0.620520 0.921147
vt 0.620520 0.995520
vt 0.546147 0.995520
vt 0.379480 0.921147
vt 0.453853 0.921147
vt 0.453853 0.995520
vt 0.379480 0.995520
vt 0.462814 0.921147
vt 0.537186 0.921147
vt 0.537186 0.995520
vt 0.462814 0.995520
vt 0.379480 0.754480
vt 0.453853 0.754480
vt 0.453853 0.828853
vt 0.379480 0.828853
vt 0.379480 0.837813
vt 0.453853 0.837814
vt 0.453853 0.912186
vt 0.379480 0.912186
vt 0.462814 0.754480
vt 0.537186 0.754480
vt 0.537186 0.828853
vt 0.462814 0.828853
vt 0.462814 0.837814
vt 0.537186 0.837814
vt 0.537186 0.912186
vt 0.462814 0.912186
vt 0.546147 0.754480
vt 0.620520 0.754480
vt 0.620520 0.828853
vt 0.546147 0.828853
vt 0.546147 0.837814
vt 0.620520 0.837813
vt 0.620520 0.912186
vt 0.546147 0.912186
vt 0.546147 0.171147
vt 0.546147 0.245520
vt 0.620520 0.245520
vt 0.620520 0.171147
vt 0.379480 0.171147
vt 0.379480 0.245520
vt 0.453853 0.245520
vt 0.453853 0.171147
vt 0.462814 0.171147
vt 0.462814 0.245520
vt 0.537186 0.245520
vt 0.537186 0.171147
vt 0.379480 0.004480
vt 0.379480 0.078853
vt 0.453853 0.078853
vt 0.453853 0.004480
vt 0.379480 0.087814
vt 0.379480 0.162186
vt 0.453853 0.162186
vt 0.453853 0.087814
vt 0.462814 0.004480
vt 0.462814 0.078853
vt 0.537186 0.078853
vt 0.537186 0.004480
vt 0.462814 0.087814
vt 0.462814 0.162186
vt 0.537186 0.162186
vt 0.537186 0.087814
vt 0.546147 0.004480
vt 0.546147 0.078853
vt 0.620520 0.078853
vt 0.620520 0.004480
vt 0.546147 0.087814
vt 0.546147 0.162186
vt 0.620520 0.162186
vt 0.620520 0.087814
vt 0.546147 0.171147
vt 0.620520 0.171147
vt 0.620520 0.245520
vt 0.546147 0.245520
vt 0.379480 0.171147
vt 0.453853 0.171147
vt 0.453853 0.245520
vt 0.379480 0.245520
vt 0.462814 0.171147
vt 0.537186 0.171147
vt 0.537186 0.245520
vt 0.462814 0.245520
vt 0.379480 0.004480
vt 0.453853 0.004480
vt 0.453853 0.078853
vt 0.379480 0.078853
vt 0.379480 0.087814
vt 0.453853 0.087814
vt 0.453853 0.162186
vt 0.379480 0.162186
vt 0.462814 0.004480
vt 0.537186 0.004480
vt 0.537186 0.078853
vt 0.462814 0.078853
vt 0.462814 0.087814
vt 0.537186 0.087814
vt 0.537186 0.162186
vt 0.462814 0.162186
vt 0.546147 0.004480
vt 0.620520 0.004480
vt 0.620520 0.078853
vt 0.546147 0.078853
vt 0.546147 0.087814
vt 0.620520 0.087814
vt 0.620520 0.162186
vt 0.546147 0.162186
vt 0.546147 0.421147
vt 0.546147 0.495520
vt 0.620520 0.495520
vt 0.620520 0.421147
vt 0.379480 0.421147
vt 0.379480 0.495520
vt 0.453853 0.495520
vt 0.453853 0.421147
vt 0.462814 0.421147
vt 0.462814 0.495520
vt 0.537186 0.495520
vt 0.537186 0.421147
vt 0.379480 0.254480
vt 0.379480 0.328853
vt 0.453853 0.328853
vt 0.453853 0.254480
vt 0.379480 0.337814
vt 0.379480 0.412186
vt 0.453853 0.412186
vt 0.453853 0.337814
vt 0.462814 0.254480
vt 0.462814 0.328853
vt 0.537186 0.328853
vt 0.537186 0.254480
vt 0.462814 0.337814
vt 0.462814 0.412186
vt 0.537186 0.412186
vt 0.537186 0.337814
vt 0.546147 0.254480
vt 0.546147 0.328853
vt 0.620520 0.328853
vt 0.620520 0.254480
vt 0.546147 0.337814
vt 0.546147 0.412186
vt 0.620520 0.412186
vt 0.620520 0.337814
vt 0.546147 0.421147
vt 0.620520 0.421147
vt 0.620520 0.495520
vt 0.546147 0.495520
vt 0.379480 0.421147
vt 0.453853 0.421147
vt 0.453853 0.495520
vt 0.379480 0.495520
vt 0.462814 0.421147
vt 0.537186 0.421147
vt 0.537186 0.495520
vt 0.462814 0.495520
vt 0.379480 0.254480
vt 0.453853 0.254480
vt 0.453853 0.328853
vt 0.379480 0.328853
vt 0.379480 0.337814
vt 0.453853 0.337814
vt 0.453853 0.412186
vt 0.379480 0.412186
vt 0.462814 0.254480
vt 0.537186 0.254480
vt 0.537186 0.328853
vt 0.462814 0.328853
vt 0.462814 0.337814
vt 0.537186 0.337814
vt 0.537186 0.412186
vt 0.462814 0.412186
vt 0.546147 0.254480
vt 0.620520 0.254480
vt 0.620520 0.328853
vt 0.546147 0.328853
vt 0.546147 0.337814
vt 0.620520 0.337814
vt 0.620520 0.412186
vt 0.546147 0.412186
vt 0.296147 0.671147
vt 0.296147 0.745520
vt 0.370520 0.745520
vt 0.370520 0.671147
vt 0.129480 0.671147
vt 0.129480 0.745520
vt 0.203853 0.745520
vt 0.203853 0.671147
vt 0.212814 0.671147
vt 0.212814 0.745520
vt 0.287186 0.745520
vt 0.287186 0.671147
vt 0.129480 0.504480
vt 0.129480 0.578853
vt 0.203853 0.578853
vt 0.203853 0.504480
vt 0.129480 0.587814
vt 0.129480 0.662186
vt 0.203853 0.662186
vt 0.203853 0.587814
vt 0.212814 0.504480
vt 0.212814 0.578853
vt 0.287186 0.578853
vt 0.287186 0.504480
vt 0.212814 0.587814
vt 0.212814 0.662186
vt 0.287186 0.662186
vt 0.287186 0.587814
vt 0.296147 0.504480
vt 0.296147 0.578853
vt 0.370520 0.578853
vt 0.370520 0.504480
vt 0.296147 0.587814
vt 0.296147 0.662186
vt 0.370520 0.662186
vt 0.370520 0.587814
vt 0.296147 0.671147
vt 0.370520 0.671147
vt 0.370520 0.745520
vt 0.296147 0.745520
vt 0.129480 0.671147
vt 0.203853 0.671147
vt 0.203853 0.745520
vt 0.129480 0.745520
vt 0.212814 0.671147
vt 0.287186 0.671147
vt 0.287186 0.745520
vt 0.212814 0.745520
vt 0.129480 0.504480
vt 0.203853 0.504480
vt 0.203853 0.578853
vt 0.129480 0.578853
vt 0.129480 0.587814
vt 0.203853 0.587814
vt 0.203853 0.662186
vt 0.129480 0.662186
vt 0.212814 0.504480
vt 0.287186 0.504480
vt 0.287186 0.578853
vt 0.212814 0.578853
vt 0.212814 0.587814
vt 0.287186 0.587814
vt 0.287186 0.662186
vt 0.212814 0.662186
vt 0.296147 0.504480
vt 0.370520 0.504480
vt 0.370520 0.578853
vt 0.296147 0.578853
vt 0.296147 0.587814
vt 0.370520 0.587814
vt 0.370520 0.662186
vt 0.296147 0.662186
vt 0.546147 0.171147
vt 0.620520 0.171147
vt 0.620520 0.245520
vt 0.546147 0.245520
vt 0.546147 0.421147
vt 0.620520 0.421147
vt 0.620520 0.495520
vt 0.546147 0.495520
vt 0.546147 0.671147
vt 0.620520 0.671147
vt 0.620520 0.745520
vt 0.546147 0.745520
vt 0.546147 0.921147
vt 0.620520 0.921147
vt 0.620520 0.995520
vt 0.546147 0.995520
vt 0.296147 0.671147
vt 0.370520 0.671147
vt 0.370520 0.745520
vt 0.296147 0.745520
vt 0.796147 0.671147
vt 0.870520 0.671147
vt 0.870520 0.745520
vt 0.796147 0.745520
vt 0.629480 0.671147
vt 0.703853 0.671147
vt 0.703853 0.745520
vt 0.629480 0.745520
vt 0.712813 0.671147
vt 0.787186 0.671147
vt 0.787186 0.745520
vt 0.712813 0.745520
vt 0.629480 0.504480
vt 0.703853 0.504480
vt 0.703853 0.578853
vt 0.629480 0.578853
vt 0.629480 0.587814
vt 0.703853 0.587814
vt 0.703853 0.662186
vt 0.629480 0.662186
vt 0.712813 0.504480
vt 0.787186 0.504480
vt 0.787186 0.578853
vt 0.712813 0.578853
vt 0.712813 0.587814
vt 0.787186 0.587814
vt 0.787186 0.662186
vt 0.712813 0.662186
vt 0.796147 0.504480
vt 0.870520 0.504480
vt 0.870520 0.578853
vt 0.796147 0.578853
vt 0.796147 0.587814
vt 0.870520 0.587814
vt 0.870520 0.662186
vt 0.796147 0.662186
vt 0.129480 0.671147
vt 0.203853 0.671147
vt 0.203853 0.745520
vt 0.129480 0.745520
vt 0.212814 0.671147
vt 0.287186 0.671147
vt 0.287186 0.745520
vt 0.212814 0.745520
vt 0.129480 0.504480
vt 0.203853 0.504480
vt 0.203853 0.578853
vt 0.129480 0.578853
vt 0.129480 0.587814
vt 0.203853 0.587814
vt 0.203853 0.662186
vt 0.129480 0.662186
vt 0.212814 0.504480
vt 0.287186 0.504480
vt 0.287186 0.578853
vt 0.212814 0.578853
vt 0.212814 0.587814
vt 0.287186 0.587814
vt 0.287186 0.662186
vt 0.212814 0.662186
vt 0.296147 0.504480
vt 0.370520 0.504480
vt 0.370520 0.578853
vt 0.296147 0.578853
vt 0.296147 0.587814
vt 0.370520 0.587814
vt 0.370520 0.662186
vt 0.296147 0.662186
vt 0.379480 0.921147
vt 0.453853 0.921147
vt 0.453853 0.995520
vt 0.379480 0.995520
vt 0.462814 0.921147
vt 0.537186 0.921147
vt 0.537186 0.995520
vt 0.462814 0.995520
vt 0.379480 0.754480
vt 0.453853 0.754480
vt 0.453853 0.828853
vt 0.379480 0.828853
vt 0.379480 0.837813
vt 0.453853 0.837814
vt 0.453853 0.912186
vt 0.379480 0.912186
vt 0.462814 0.754480
vt 0.537186 0.754480
vt 0.537186 0.828853
vt 0.462814 0.828853
vt 0.462814 0.837814
vt 0.537186 0.837814
vt 0.537186 0.912186
vt 0.462814 0.912186
vt 0.546147 0.754480
vt 0.620520 0.754480
vt 0.620520 0.828853
vt 0.546147 0.828853
vt 0.546147 0.837814
vt 0.620520 0.837813
vt 0.620520 0.912186
vt 0.546147 0.912186
vt 0.379480 0.671147
vt 0.453853 0.671147
vt 0.453853 0.745520
vt 0.379480 0.745520
vt 0.462814 0.671147
vt 0.537186 0.671147
vt 0.537186 0.745520
vt 0.462814 0.745520
vt 0.379480 0.504480
vt 0.453853 0.504480
vt 0.453853 0.578853
vt 0.379480 0.578853
vt 0.379480 0.587814
vt 0.453853 0.587814
vt 0.453853 0.662186
vt 0.379480 0.662186
vt 0.462814 0.504480
vt 0.537186 0.504480
vt 0.537186 0.578853
vt 0.462814 0.578853
vt 0.462814 0.587814
vt 0.537186 0.587814
vt 0.537186 0.662186
vt 0.462814 0.662186
vt 0.546147 0.504480
vt 0.620520 0.504480
vt 0.620520 0.578853
vt 0.546147 0.578853
vt 0.546147 0.587814
vt 0.620520 0.587814
vt 0.620520 0.662186
vt 0.546147 0.662186
vt 0.379480 0.421147
vt 0.453853 0.421147
vt 0.453853 0.495520
vt 0.379480 0.495520
vt 0.462814 0.421147
vt 0.537186 0.421147
vt 0.537186 0.495520
vt 0.462814 0.495520
vt 0.379480 0.254480
vt 0.453853 0.254480
vt 0.453853 0.328853
vt 0.379480 0.328853
vt 0.379480 0.337814
vt 0.453853 0.337814
vt 0.453853 0.412186
vt 0.379480 0.412186
vt 0.462814 0.254480
vt 0.537186 0.254480
vt 0.537186 0.328853
vt 0.462814 0.328853
vt 0.462814 0.337814
vt 0.537186 0.337814
vt 0.537186 0.412186
vt 0.462814 0.412186
vt 0.546147 0.254480
vt 0.620520 0.254480
vt 0.620520 0.328853
vt 0.546147 0.328853
vt 0.546147 0.337814
vt 0.620520 0.337814
vt 0.620520 0.412186
vt 0.546147 0.412186
vt 0.379480 0.171147
vt 0.453853 0.171147
vt 0.453853 0.245520
vt 0.379480 0.245520
vt 0.462814 0.171147
vt 0.537186 0.171147
vt 0.537186 0.245520
vt 0.462814 0.245520
vt 0.379480 0.004480
vt 0.453853 0.004480
vt 0.453853 0.078853
vt 0.379480 0.078853
vt 0.379480 0.087814
vt 0.453853 0.087814
vt 0.453853 0.162186
vt 0.379480 0.162186
vt 0.462814 0.004480
vt 0.537186 0.004480
vt 0.537186 0.078853
vt 0.462814 0.078853
vt 0.462814 0.087814
vt 0.537186 0.087814
vt 0.537186 0.162186
vt 0.462814 0.162186
vt 0.546147 0.004480
vt 0.620520 0.004480
vt 0.620520 0.078853
vt 0.546147 0.078853
vt 0.546147 0.087814
vt 0.620520 0.087814
vt 0.620520 0.162186
vt 0.546147 0.162186
vt 0.541667 0.166667
vt 0.625000 0.166667
vt 0.625000 0.250000
vt 0.541667 0.250000
vt 0.541667 0.416667
vt 0.625000 0.416667
vt 0.625000 0.500000
vt 0.541667 0.500000
vt 0.541667 0.666667
vt 0.625000 0.666667
vt 0.625000 0.750000
vt 0.541667 0.750000
vt 0.541667 0.916667
vt 0.625000 0.916667
vt 0.625000 1.000000
vt 0.541667 1.000000
vt 0.291667 0.666667
vt 0.375000 0.666667
vt 0.375000 0.750000
vt 0.291667 0.750000
vt 0.791667 0.666667
vt 0.875000 0.666667
vt 0.875000 0.750000
vt 0.791667 0.750000
vt 0.708333 0.666667
vt 0.708333 0.750000
vt 0.708333 0.500000
vt 0.708333 0.583333
vt 0.625000 0.583333
vt 0.791667 0.500000
vt 0.791667 0.583333
vt 0.875000 0.500000
vt 0.875000 0.583333
vt 0.125000 0.666667
vt 0.208333 0.666667
vt 0.208333 0.750000
vt 0.125000 0.750000
vt 0.125000 0.500000
vt 0.208333 0.500000
vt 0.208333 0.583333
vt 0.125000 0.583333
vt 0.291667 0.500000
vt 0.291667 0.583333
vt 0.375000 0.500000
vt 0.375000 0.583333
vt 0.375000 0.916667
vt 0.458333 0.916667
vt 0.458333 1.000000
vt 0.375000 1.000000
vt 0.458333 0.750000
vt 0.458333 0.833333
vt 0.375000 0.833333
vt 0.541667 0.833333
vt 0.625000 0.833333
vt 0.458333 0.666667
vt 0.458333 0.500000
vt 0.458333 0.583333
vt 0.541667 0.583333
vt 0.375000 0.416667
vt 0.458333 0.416667
vt 0.375000 0.250000
vt 0.458333 0.250000
vt 0.458333 0.333333
vt 0.375000 0.333333
vt 0.541667 0.333333
vt 0.625000 0.333333
vt 0.375000 0.166667
vt 0.458333 0.166667
vt 0.375000 0.000000
vt 0.458333 0.000000
vt 0.458333 0.083333
vt 0.375000 0.083333
vt 0.541667 0.000000
vt 0.541667 0.083333
vt 0.625000 0.000000
vt 0.625000 0.083333
vn 0.0000 -1.0000 0.0000
vn 0.0000 1.0000 0.0000
vn 0.0000 0.0000 -1.0000
vn 1.0000 0.0000 0.0000
vn -1.0000 0.0000 0.0000
vn 0.0000 0.0000 1.0000
usemtl Rojo
s off
f 21/1/1 24/2/1 23/3/1 22/4/1
f 25/5/1 28/6/1 27/7/1 26/8/1
f 29/9/1 32/10/1 31/11/1 30/12/1
f 33/13/1 36/14/1 35/15/1 34/16/1
f 37/17/1 40/18/1 39/19/1 38/20/1
f 41/21/1 44/22/1 43/23/1 42/24/1
f 45/25/1 48/26/1 47/27/1 46/28/1
f 49/29/1 52/30/1 51/31/1 50/32/1
f 53/33/1 56/34/1 55/35/1 54/36/1
f 238/37/2 237/38/2 240/39/2 239/40/2
f 242/41/2 241/42/2 244/43/2 243/44/2
f 246/45/2 245/46/2 248/47/2 247/48/2
f 250/49/2 249/50/2 252/51/2 251/52/2
f 254/53/2 253/54/2 256/55/2 255/56/2
f 258/57/2 257/58/2 260/59/2 259/60/2
f 262/61/2 261/62/2 264/63/2 263/64/2
f 266/65/2 265/66/2 268/67/2 267/68/2
f 270/69/2 269/70/2 272/71/2 271/72/2
f 21/1/3 22/4/3 237/38/3 238/37/3
f 24/2/4 21/1/4 238/37/4 239/40/4
f 22/4/5 23/3/5 240/39/5 237/38/5
f 23/3/6 24/2/6 239/40/6 240/39/6
f 25/5/3 26/8/3 241/42/3 242/41/3
f 28/6/4 25/5/4 242/41/4 243/44/4
f 26/8/5 27/7/5 244/43/5 241/42/5
f 27/7/6 28/6/6 243/44/6 244/43/6
f 29/9/3 30/12/3 245/46/3 246/45/3
f 32/10/4 29/9/4 246/45/4 247/48/4
f 30/12/5 31/11/5 248/47/5 245/46/5
f 31/11/6 32/10/6 247/48/6 248/47/6
f 33/13/3 34/16/3 249/50/3 250/49/3
f 36/14/4 33/13/4 250/49/4 251/52/4
f 34/16/5 35/15/5 252/51/5 249/50/5
f 35/15/6 36/14/6 251/52/6 252/51/6
f 37/17/3 38/20/3 253/54/3 254/53/3
f 40/18/4 37/17/4 254/53/4 255/56/4
f 38/20/5 39/19/5 256/55/5 253/54/5
f 39/19/6 40/18/6 255/56/6 256/55/6
f 41/21/3 42/24/3 257/58/3 258/57/3
f 44/22/4 41/21/4 258/57/4 259/60/4
f 42/24/5 43/23/5 260/59/5 257/58/5
f 43/23/6 44/22/6 259/60/6 260/59/6
f 45/25/3 46/28/3 261/62/3 262/61/3
f 48/26/4 45/25/4 262/61/4 263/64/4
f 46/28/5 47/27/5 264/63/5 261/62/5
f 47/27/6 48/26/6 263/64/6 264/63/6
f 49/29/3 50/32/3 265/66/3 266/65/3
f 52/30/4 49/29/4 266/65/4 267/68/4
f 50/32/5 51/31/5 268/67/5 265/66/5
f 51/31/6 52/30/6 267/68/6 268/67/6
f 53/33/3 54/36/3 269/70/3 270/69/3
f 56/34/4 53/33/4 270/69/4 271/72/4
f 54/36/5 55/35/5 272/71/5 269/70/5
f 55/35/6 56/34/6 271/72/6 272/71/6
usemtl Blanco
f 9/73/5 12/74/5 11/75/5 10/76/5
f 121/77/5 124/78/5 123/79/5 122/80/5
f 125/81/5 128/82/5 127/83/5 126/84/5
f 129/85/5 132/86/5 131/87/5 130/88/5
f 133/89/5 136/90/5 135/91/5 134/92/5
f 137/93/5 140/94/5 139/95/5 138/96/5
f 141/97/5 144/98/5 143/99/5 142/100/5
f 145/101/5 148/102/5 147/103/5 146/104/5
f 149/105/5 152/106/5 151/107/5 150/108/5
f 226/109/4 225/110/4 228/111/4 227/112/4
f 338/113/4 337/114/4 340/115/4 339/116/4
f 342/117/4 341/118/4 344/119/4 343/120/4
f 346/121/4 345/122/4 348/123/4 347/124/4
f 350/125/4 349/126/4 352/127/4 351/128/4
f 354/129/4 353/130/4 356/131/4 355/132/4
f 358/133/4 357/134/4 360/135/4 359/136/4
f 362/137/4 361/138/4 364/139/4 363/140/4
f 366/141/4 365/142/4 368/143/4 367/144/4
f 9/73/3 10/76/3 225/110/3 226/109/3
f 12/74/1 9/73/1 226/109/1 227/112/1
f 10/76/2 11/75/2 228/111/2 225/110/2
f 11/75/6 12/74/6 227/112/6 228/111/6
f 121/77/3 122/80/3 337/114/3 338/113/3
f 124/78/1 121/77/1 338/113/1 339/116/1
f 122/80/2 123/79/2 340/115/2 337/114/2
f 123/79/6 124/78/6 339/116/6 340/115/6
f 125/81/3 126/84/3 341/118/3 342/117/3
f 128/82/1 125/81/1 342/117/1 343/120/1
f 126/84/2 127/83/2 344/119/2 341/118/2
f 127/83/6 128/82/6 343/120/6 344/119/6
f 129/85/3 130/88/3 345/122/3 346/121/3
f 132/86/1 129/85/1 346/121/1 347/124/1
f 130/88/2 131/87/2 348/123/2 345/122/2
f 131/87/6 132/86/6 347/124/6 348/123/6
f 133/89/3 134/92/3 349/126/3 350/125/3
f 136/90/1 133/89/1 350/125/1 351/128/1
f 134/92/2 135/91/2 352/127/2 349/126/2
f 135/91/6 136/90/6 351/128/6 352/127/6
f 137/93/3 138/96/3 353/130/3 354/129/3
f 140/94/1 137/93/1 354/129/1 355/132/1
f 138/96/2 139/95/2 356/131/2 353/130/2
f 139/95/6 140/94/6 355/132/6 356/131/6
f 141/97/3 142/100/3 357/134/3 358/133/3
f 144/98/1 141/97/1 358/133/1 359/136/1
f 142/100/2 143/99/2 360/135/2 357/134/2
f 143/99/6 144/98/6 359/136/6 360/135/6
f 145/101/3 146/104/3 361/138/3 362/137/3
f 148/102/1 145/101/1 362/137/1 363/140/1
f 146/104/2 147/103/2 364/139/2 361/138/2
f 147/103/6 148/102/6 363/140/6 364/139/6
f 149/105/3 150/108/3 365/142/3 366/141/3
f 152/106/1 149/105/1 366/141/1 367/144/1
f 150/108/2 151/107/2 368/143/2 365/142/2
f 151/107/6 152/106/6 367/144/6 368/143/6
usemtl Azul
f 13/145/3 16/146/3 15/147/3 14/148/3
f 89/149/3 92/150/3 91/151/3 90/152/3
f 93/153/3 96/154/3 95/155/3 94/156/3
f 97/157/3 100/158/3 99/159/3 98/160/3
f 101/161/3 104/162/3 103/163/3 102/164/3
f 105/165/3 108/166/3 107/167/3 106/168/3
f 109/169/3 112/170/3 111/171/3 110/172/3
f 113/173/3 116/174/3 115/175/3 114/176/3
f 117/177/3 120/178/3 119/179/3 118/180/3
f 230/181/6 229/182/6 232/183/6 231/184/6
f 306/185/6 305/186/6 308/187/6 307/188/6
f 310/189/6 309/190/6 312/191/6 311/192/6
f 314/193/6 313/194/6 316/195/6 315/196/6
f 318/197/6 317/198/6 320/199/6 319/200/6
f 322/201/6 321/202/6 324/203/6 323/204/6
f 326/205/6 325/206/6 328/207/6 327/208/6
f 330/209/6 329/210/6 332/211/6 331/212/6
f 334/213/6 333/214/6 336/215/6 335/216/6
f 89/149/4 90/152/4 305/186/4 306/185/4
f 92/150/1 89/149/1 306/185/1 307/188/1
f 90/152/2 91/151/2 308/187/2 305/186/2
f 91/151/5 92/150/5 307/188/5 308/187/5
f 93/153/4 94/156/4 309/190/4 310/189/4
f 96/154/1 93/153/1 310/189/1 311/192/1
f 94/156/2 95/155/2 312/191/2 309/190/2
f 95/155/5 96/154/5 311/192/5 312/191/5
f 97/157/4 98/160/4 313/194/4 314/193/4
f 100/158/1 97/157/1 314/193/1 315/196/1
f 98/160/2 99/159/2 316/195/2 313/194/2
f 99/159/5 100/158/5 315/196/5 316/195/5
f 101/161/4 102/164/4 317/198/4 318/197/4
f 104/162/1 101/161/1 318/197/1 319/200/1
f 102/164/2 103/163/2 320/199/2 317/198/2
f 103/163/5 104/162/5 319/200/5 320/199/5
f 105/165/4 106/168/4 321/202/4 322/201/4
f 108/166/1 105/165/1 322/201/1 323/204/1
f 106/168/2 107/167/2 324/203/2 321/202/2
f 107/167/5 108/166/5 323/204/5 324/203/5
f 109/169/4 110/172/4 325/206/4 326/205/4
f 112/170/1 109/169/1 326/205/1 327/208/1
f 110/172/2 111/171/2 328/207/2 325/206/2
f 111/171/5 112/170/5 327/208/5 328/207/5
f 113/173/4 114/176/4 329/210/4 330/209/4
f 116/174/1 113/173/1 330/209/1 331/212/1
f 114/176/2 115/175/2 332/211/2 329/210/2
f 115/175/5 116/174/5 331/212/5 332/211/5
f 117/177/4 118/180/4 333/214/4 334/213/4
f 13/145/4 14/148/4 229/182/4 230/181/4
f 120/178/1 117/177/1 334/213/1 335/216/1
f 16/146/1 13/145/1 230/181/1 231/184/1
f 118/180/2 119/179/2 336/215/2 333/214/2
f 14/148/2 15/147/2 232/183/2 229/182/2
f 119/179/5 120/178/5 335/216/5 336/215/5
f 15/147/5 16/146/5 231/184/5 232/183/5
usemtl Amarillo
f 1/217/4 4/218/4 3/219/4 2/220/4
f 185/221/4 188/222/4 187/223/4 186/224/4
f 189/225/4 192/226/4 191/227/4 190/228/4
f 193/229/4 196/230/4 195/231/4 194/232/4
f 197/233/4 200/234/4 199/235/4 198/236/4
f 201/237/4 204/238/4 203/239/4 202/240/4
f 205/241/4 208/242/4 207/243/4 206/244/4
f 209/245/4 212/246/4 211/247/4 210/248/4
f 213/249/4 216/250/4 215/251/4 214/252/4
f 218/253/5 217/254/5 220/255/5 219/256/5
f 402/257/5 401/258/5 404/259/5 403/260/5
f 406/261/5 405/262/5 408/263/5 407/264/5
f 409/265/5 410/266/5 412/267/5 411/268/5
f 414/269/5 413/270/5 416/271/5 415/272/5
f 417/273/5 418/274/5 420/275/5 419/276/5
f 422/277/5 421/278/5 424/279/5 423/280/5
f 425/281/5 426/282/5 428/283/5 427/284/5
f 430/285/5 429/286/5 432/287/5 431/288/5
f 185/221/6 186/224/6 401/258/6 402/257/6
f 188/222/1 185/221/1 402/257/1 403/260/1
f 186/224/2 187/223/2 404/259/2 401/258/2
f 187/223/3 188/222/3 403/260/3 404/259/3
f 189/225/6 190/228/6 405/262/6 406/261/6
f 192/226/1 189/225/1 406/261/1 407/264/1
f 190/228/2 191/227/2 408/263/2 405/262/2
f 191/227/3 192/226/3 407/264/3 408/263/3
f 193/229/6 194/232/6 410/266/6 409/265/6
f 196/230/1 193/229/1 409/265/1 411/268/1
f 194/232/2 195/231/2 412/267/2 410/266/2
f 195/231/3 196/230/3 411/268/3 412/267/3
f 197/233/6 198/236/6 413/270/6 414/269/6
f 200/234/1 197/233/1 414/269/1 415/272/1
f 198/236/2 199/235/2 416/271/2 413/270/2
f 199/235/3 200/234/3 415/272/3 416/271/3
f 201/237/6 202/240/6 418/274/6 417/273/6
f 204/238/1 201/237/1 417/273/1 419/276/1
f 202/240/2 203/239/2 420/275/2 418/274/2
f 203/239/3 204/238/3 419/276/3 420/275/3
f 205/241/6 206/244/6 421/278/6 422/277/6
f 208/242/1 205/241/1 422/277/1 423/280/1
f 206/244/2 207/243/2 424/279/2 421/278/2
f 207/243/3 208/242/3 423/280/3 424/279/3
f 209/245/6 210/248/6 426/282/6 425/281/6
f 1/217/6 2/220/6 217/254/6 218/253/6
f 212/246/1 209/245/1 425/281/1 427/284/1
f 4/218/1 1/217/1 218/253/1 219/256/1
f 210/248/2 211/247/2 428/283/2 426/282/2
f 2/220/2 3/219/2 220/255/2 217/254/2
f 211/247/3 212/246/3 427/284/3 428/283/3
f 3/219/3 4/218/3 219/256/3 220/255/3
f 213/249/6 214/252/6 429/286/6 430/285/6
f 216/250/1 213/249/1 430/285/1 431/288/1
f 214/252/2 215/251/2 432/287/2 429/286/2
f 215/251/3 216/250/3 431/288/3 432/287/3
usemtl Verde
f 5/289/6 8/290/6 7/291/6 6/292/6
f 153/293/6 156/294/6 155/295/6 154/296/6
f 157/297/6 160/298/6 159/299/6 158/300/6
f 161/301/6 164/302/6 163/303/6 162/304/6
f 165/305/6 168/306/6 167/307/6 166/308/6
f 169/309/6 172/310/6 171/311/6 170/312/6
f 173/313/6 176/314/6 175/315/6 174/316/6
f 177/317/6 180/318/6 179/319/6 178/320/6
f 181/321/6 184/322/6 183/323/6 182/324/6
f 222/325/3 221/326/3 224/327/3 223/328/3
f 370/329/3 369/330/3 372/331/3 371/332/3
f 374/333/3 373/334/3 376/335/3 375/336/3
f 378/337/3 377/338/3 380/339/3 379/340/3
f 382/341/3 381/342/3 384/343/3 383/344/3
f 386/345/3 385/346/3 388/347/3 387/348/3
f 390/349/3 389/350/3 392/351/3 391/352/3
f 394/353/3 393/354/3 396/355/3 395/356/3
f 398/357/3 397/358/3 400/359/3 399/360/3
f 180/318/1 177/317/1 394/353/1 395/356/1
f 178/320/2 179/319/2 396/355/2 393/354/2
f 179/319/4 180/318/4 395/356/4 396/355/4
f 181/321/5 182/324/5 397/358/5 398/357/5
f 184/322/1 181/321/1 398/357/1 399/360/1
f 182/324/2 183/323/2 400/359/2 397/358/2
f 183/323/4 184/322/4 399/360/4 400/359/4
f 5/289/5 6/292/5 221/326/5 222/325/5
f 8/290/1 5/289/1 222/325/1 223/328/1
f 6/292/2 7/291/2 224/327/2 221/326/2
f 7/291/4 8/290/4 223/328/4 224/327/4
f 153/293/5 154/296/5 369/330/5 370/329/5
f 156/294/1 153/293/1 370/329/1 371/332/1
f 154/296/2 155/295/2 372/331/2 369/330/2
f 155/295/4 156/294/4 371/332/4 372/331/4
f 157/297/5 158/300/5 373/334/5 374/333/5
f 160/298/1 157/297/1 374/333/1 375/336/1
f 158/300/2 159/299/2 376/335/2 373/334/2
f 159/299/4 160/298/4 375/336/4 376/335/4
f 161/301/5 162/304/5 377/338/5 378/337/5
f 164/302/1 161/301/1 378/337/1 379/340/1
f 162/304/2 163/303/2 380/339/2 377/338/2
f 163/303/4 164/302/4 379/340/4 380/339/4
f 165/305/5 166/308/5 381/342/5 382/341/5
f 168/306/1 165/305/1 382/341/1 383/344/1
f 166/308/2 167/307/2 384/343/2 381/342/2
f 167/307/4 168/306/4 383/344/4 384/343/4
f 169/309/5 170/312/5 385/346/5 386/345/5
f 172/310/1 169/309/1 386/345/1 387/348/1
f 170/312/2 171/311/2 388/347/2 385/346/2
f 171/311/4 172/310/4 387/348/4 388/347/4
f 173/313/5 174/316/5 389/350/5 390/349/5
f 176/314/1 173/313/1 390/349/1 391/352/1
f 174/316/2 175/315/2 392/351/2 389/350/2
f 175/315/4 176/314/4 391/352/4 392/351/4
f 177/317/5 178/320/5 393/354/5 394/353/5
usemtl Naranja
f 17/361/2 20/362/2 19/363/2 18/364/2
f 57/365/2 60/366/2 59/367/2 58/368/2
f 61/369/2 64/370/2 63/371/2 62/372/2
f 65/373/2 68/374/2 67/375/2 66/376/2
f 69/377/2 72/378/2 71/379/2 70/380/2
f 73/381/2 76/382/2 75/383/2 74/384/2
f 77/385/2 80/386/2 79/387/2 78/388/2
f 81/389/2 84/390/2 83/391/2 82/392/2
f 85/393/2 88/394/2 87/395/2 86/396/2
f 234/397/1 233/398/1 236/399/1 235/400/1
f 274/401/1 273/402/1 276/403/1 275/404/1
f 278/405/1 277/406/1 280/407/1 279/408/1
f 282/409/1 281/410/1 284/411/1 283/412/1
f 286/413/1 285/414/1 288/415/1 287/416/1
f 290/417/1 289/418/1 292/419/1 291/420/1
f 294/421/1 293/422/1 296/423/1 295/424/1
f 298/425/1 297/426/1 300/427/1 299/428/1
f 302/429/1 301/430/1 304/431/1 303/432/1
f 73/381/3 74/384/3 289/418/3 290/417/3
f 76/382/5 73/381/5 290/417/5 291/420/5
f 74/384/4 75/383/4 292/419/4 289/418/4
f 75/383/6 76/382/6 291/420/6 292/419/6
f 77/385/3 78/388/3 293/422/3 294/421/3
f 80/386/5 77/385/5 294/421/5 295/424/5
f 78/388/4 79/387/4 296/423/4 293/422/4
f 79/387/6 80/386/6 295/424/6 296/423/6
f 81/389/3 82/392/3 297/426/3 298/425/3
f 84/390/5 81/389/5 298/425/5 299/428/5
f 82/392/4 83/391/4 300/427/4 297/426/4
f 83/391/6 84/390/6 299/428/6 300/427/6
f 85/393/3 86/396/3 301/430/3 302/429/3
f 88/394/5 85/393/5 302/429/5 303/432/5
f 86/396/4 87/395/4 304/431/4 301/430/4
f 87/395/6 88/394/6 303/432/6 304/431/6
f 17/361/3 18/364/3 233/398/3 234/397/3
f 20/362/5 17/361/5 234/397/5 235/400/5
f 18/364/4 19/363/4 236/399/4 233/398/4
f 19/363/6 20/362/6 235/400/6 236/399/6
f 57/365/3 58/368/3 273/402/3 274/401/3
f 60/366/5 57/365/5 274/401/5 275/404/5
f 58/368/4 59/367/4 276/403/4 273/402/4
f 59/367/6 60/366/6 275/404/6 276/403/6
f 61/369/3 62/372/3 277/406/3 278/405/3
f 64/370/5 61/369/5 278/405/5 279/408/5
f 62/372/4 63/371/4 280/407/4 277/406/4
f 63/371/6 64/370/6 279/408/6 280/407/6
f 65/373/3 66/376/3 281/410/3 282/409/3
f 68/374/5 65/373/5 282/409/5 283/412/5
f 66/376/4 67/375/4 284/411/4 281/410/4
f 67/375/6 68/374/6 283/412/6 284/411/6
f 69/377/3 70/380/3 285/414/3 286/413/3
f 72/378/5 69/377/5 286/413/5 287/416/5
f 70/380/4 71/379/4 288/415/4 285/414/4
f 71/379/6 72/378/6 287/416/6 288/415/6
usemtl Cuerpo
f 489/433/5 490/434/5 491/435/5 492/436/5
f 493/437/3 494/438/3 495/439/3 496/440/3
f 497/441/4 498/442/4 499/443/4 500/444/4
f 501/445/6 502/446/6 503/447/6 504/448/6
f 505/449/1 506/450/1 507/451/1 508/452/1
f 509/453/2 510/454/2 511/455/2 512/456/2
f 513/457/2 514/458/2 515/459/2 516/460/2
f 517/461/2 518/462/2 519/463/2 520/464/2
f 521/465/2 522/466/2 523/467/2 524/468/2
f 525/469/2 526/470/2 527/471/2 528/472/2
f 529/473/2 530/474/2 531/475/2 532/476/2
f 533/477/2 534/478/2 535/479/2 536/480/2
f 537/481/2 538/482/2 539/483/2 540/484/2
f 541/485/2 542/486/2 543/487/2 544/488/2
f 545/489/1 546/490/1 547/491/1 548/492/1
f 549/493/1 550/494/1 551/495/1 552/496/1
f 553/497/1 554/498/1 555/499/1 556/500/1
f 557/501/1 558/502/1 559/503/1 560/504/1
f 561/505/1 562/506/1 563/507/1 564/508/1
f 565/509/1 566/510/1 567/511/1 568/512/1
f 569/513/1 570/514/1 571/515/1 572/516/1
f 573/517/1 574/518/1 575/519/1 576/520/1
f 577/521/6 578/522/6 579/523/6 580/524/6
f 581/525/6 582/526/6 583/527/6 584/528/6
f 585/529/6 586/530/6 587/531/6 588/532/6
f 589/533/6 590/534/6 591/535/6 592/536/6
f 593/537/6 594/538/6 595/539/6 596/540/6
f 597/541/6 598/542/6 599/543/6 600/544/6
f 601/545/6 602/546/6 603/547/6 604/548/6
f 605/549/6 606/550/6 607/551/6 608/552/6
f 609/553/4 610/554/4 611/555/4 612/556/4
f 613/557/4 614/558/4 615/559/4 616/560/4
f 617/561/4 618/562/4 619/563/4 620/564/4
f 621/565/4 622/566/4 623/567/4 624/568/4
f 625/569/4 626/570/4 627/571/4 628/572/4
f 629/573/4 630/574/4 631/575/4 632/576/4
f 633/577/4 634/578/4 635/579/4 636/580/4
f 637/581/4 638/582/4 639/583/4 640/584/4
f 641/585/3 642/586/3 643/587/3 644/588/3
f 645/589/3 646/590/3 647/591/3 648/592/3
f 649/593/3 650/594/3 651/595/3 652/596/3
f 653/597/3 654/598/3 655/599/3 656/600/3
f 657/601/3 658/602/3 659/603/3 660/604/3
f 661/605/3 662/606/3 663/607/3 664/608/3
f 665/609/3 666/610/3 667/611/3 668/612/3
f 669/613/3 670/614/3 671/615/3 672/616/3
f 673/617/5 674/618/5 675/619/5 676/620/5
f 677/621/5 678/622/5 679/623/5 680/624/5
f 681/625/5 682/626/5 683/627/5 684/628/5
f 685/629/5 686/630/5 687/631/5 688/632/5
f 689/633/5 690/634/5 691/635/5 692/636/5
f 693/637/5 694/638/5 695/639/5 696/640/5
f 697/641/5 698/642/5 699/643/5 700/644/5
f 701/645/5 702/646/5 703/647/5 704/648/5
f 488/649/5 446/650/5 490/434/5 489/433/5
f 446/650/5 436/651/5 491/435/5 490/434/5
f 436/651/5 447/652/5 492/436/5 491/435/5
f 447/652/5 488/649/5 489/433/5 492/436/5
f 484/653/3 452/654/3 494/438/3 493/437/3
f 452/654/3 440/655/3 495/439/3 494/438/3
f 440/655/3 453/656/3 496/440/3 495/439/3
f 453/656/3 484/653/3 493/437/3 496/440/3
f 480/657/4 458/658/4 498/442/4 497/441/4
f 458/658/4 438/659/4 499/443/4 498/442/4
f 438/659/4 459/660/4 500/444/4 499/443/4
f 459/660/4 480/657/4 497/441/4 500/444/4
f 476/661/6 464/662/6 502/446/6 501/445/6
f 464/662/6 434/663/6 503/447/6 502/446/6
f 434/663/6 444/664/6 504/448/6 503/447/6
f 444/664/6 476/661/6 501/445/6 504/448/6
f 472/665/1 455/666/1 506/450/1 505/449/1
f 455/666/1 437/667/1 507/451/1 506/450/1
f 437/667/1 462/668/1 508/452/1 507/451/1
f 462/668/1 472/665/1 505/449/1 508/452/1
f 468/669/2 445/670/2 510/454/2 509/453/2
f 445/670/2 434/671/2 511/455/2 510/454/2
f 434/671/2 464/672/2 512/456/2 511/455/2
f 464/672/2 468/669/2 509/453/2 512/456/2
f 458/658/2 466/673/2 514/458/2 513/457/2
f 466/673/2 463/674/2 515/459/2 514/458/2
f 463/674/2 438/659/2 516/460/2 515/459/2
f 438/659/2 458/658/2 513/457/2 516/460/2
f 466/673/2 468/669/2 518/462/2 517/461/2
f 468/669/2 464/672/2 519/463/2 518/462/2
f 464/672/2 463/674/2 520/464/2 519/463/2
f 463/674/2 466/673/2 517/461/2 520/464/2
f 440/655/2 452/675/2 522/466/2 521/465/2
f 452/675/2 465/676/2 523/467/2 522/466/2
f 465/676/2 457/677/2 524/468/2 523/467/2
f 457/677/2 440/655/2 521/465/2 524/468/2
f 457/677/2 465/676/2 526/470/2 525/469/2
f 465/676/2 466/673/2 527/471/2 526/470/2
f 466/673/2 458/658/2 528/472/2 527/471/2
f 458/658/2 457/677/2 525/469/2 528/472/2
f 452/675/2 451/678/2 530/474/2 529/473/2
f 451/678/2 467/679/2 531/475/2 530/474/2
f 467/679/2 465/676/2 532/476/2 531/475/2
f 465/676/2 452/675/2 529/473/2 532/476/2
f 465/676/2 467/679/2 534/478/2 533/477/2
f 467/679/2 468/669/2 535/479/2 534/478/2
f 468/669/2 466/673/2 536/480/2 535/479/2
f 466/673/2 465/676/2 533/477/2 536/480/2
f 451/678/2 436/680/2 538/482/2 537/481/2
f 436/680/2 446/681/2 539/483/2 538/482/2
f 446/681/2 467/679/2 540/484/2 539/483/2
f 467/679/2 451/678/2 537/481/2 540/484/2
f 467/679/2 446/681/2 542/486/2 541/485/2
f 446/681/2 445/670/2 543/487/2 542/486/2
f 445/670/2 468/669/2 544/488/2 543/487/2
f 468/669/2 467/679/2 541/485/2 544/488/2
f 442/682/1 470/683/1 546/490/1 545/489/1
f 470/683/1 461/684/1 547/491/1 546/490/1
f 461/684/1 433/685/1 548/492/1 547/491/1
f 433/685/1 442/682/1 545/489/1 548/492/1
f 470/683/1 472/665/1 550/494/1 549/493/1
f 472/665/1 462/668/1 551/495/1 550/494/1
f 462/668/1 461/684/1 552/496/1 551/495/1
f 461/684/1 470/683/1 549/493/1 552/496/1
f 435/686/1 450/687/1 554/498/1 553/497/1
f 450/687/1 469/688/1 555/499/1 554/498/1
f 469/688/1 441/689/1 556/500/1 555/499/1
f 441/689/1 435/686/1 553/497/1 556/500/1
f 441/689/1 469/688/1 558/502/1 557/501/1
f 469/688/1 470/683/1 559/503/1 558/502/1
f 470/683/1 442/682/1 560/504/1 559/503/1
f 442/682/1 441/689/1 557/501/1 560/504/1
f 450/687/1 449/690/1 562/506/1 561/505/1
f 449/690/1 471/691/1 563/507/1 562/506/1
f 471/691/1 469/688/1 564/508/1 563/507/1
f 469/688/1 450/687/1 561/505/1 564/508/1
f 469/688/1 471/691/1 566/510/1 565/509/1
f 471/691/1 472/665/1 567/511/1 566/510/1
f 472/665/1 470/683/1 568/512/1 567/511/1
f 470/683/1 469/688/1 565/509/1 568/512/1
f 449/690/1 439/692/1 570/514/1 569/513/1
f 439/692/1 456/693/1 571/515/1 570/514/1
f 456/693/1 471/691/1 572/516/1 571/515/1
f 471/691/1 449/690/1 569/513/1 572/516/1
f 471/691/1 456/693/1 574/518/1 573/517/1
f 456/693/1 455/666/1 575/519/1 574/518/1
f 455/666/1 472/665/1 576/520/1 575/519/1
f 472/665/1 471/691/1 573/517/1 576/520/1
f 461/694/6 474/695/6 578/522/6 577/521/6
f 474/695/6 443/696/6 579/523/6 578/522/6
f 443/696/6 433/697/6 580/524/6 579/523/6
f 433/697/6 461/694/6 577/521/6 580/524/6
f 474/695/6 476/661/6 582/526/6 581/525/6
f 476/661/6 444/664/6 583/527/6 582/526/6
f 444/664/6 443/696/6 584/528/6 583/527/6
f 443/696/6 474/695/6 581/525/6 584/528/6
f 437/667/6 460/698/6 586/530/6 585/529/6
f 460/698/6 473/699/6 587/531/6 586/530/6
f 473/699/6 462/700/6 588/532/6 587/531/6
f 462/700/6 437/667/6 585/529/6 588/532/6
f 462/700/6 473/699/6 590/534/6 589/533/6
f 473/699/6 474/695/6 591/535/6 590/534/6
f 474/695/6 461/694/6 592/536/6 591/535/6
f 461/694/6 462/700/6 589/533/6 592/536/6
f 460/698/6 459/660/6 594/538/6 593/537/6
f 459/660/6 475/701/6 595/539/6 594/538/6
f 475/701/6 473/699/6 596/540/6 595/539/6
f 473/699/6 460/698/6 593/537/6 596/540/6
f 473/699/6 475/701/6 598/542/6 597/541/6
f 475/701/6 476/661/6 599/543/6 598/542/6
f 476/661/6 474/695/6 600/544/6 599/543/6
f 474/695/6 473/699/6 597/541/6 600/544/6
f 459/660/6 438/659/6 602/546/6 601/545/6
f 438/659/6 463/702/6 603/547/6 602/546/6
f 463/702/6 475/701/6 604/548/6 603/547/6
f 475/701/6 459/660/6 601/545/6 604/548/6
f 475/701/6 463/702/6 606/550/6 605/549/6
f 463/702/6 464/662/6 607/551/6 606/550/6
f 464/662/6 476/661/6 608/552/6 607/551/6
f 476/661/6 475/701/6 605/549/6 608/552/6
f 455/666/4 478/703/4 610/554/4 609/553/4
f 478/703/4 460/698/4 611/555/4 610/554/4
f 460/698/4 437/667/4 612/556/4 611/555/4
f 437/667/4 455/666/4 609/553/4 612/556/4
f 478/703/4 480/657/4 614/558/4 613/557/4
f 480/657/4 459/660/4 615/559/4 614/558/4
f 459/660/4 460/698/4 616/560/4 615/559/4
f 460/698/4 478/703/4 613/557/4 616/560/4
f 439/692/4 454/704/4 618/562/4 617/561/4
f 454/704/4 477/705/4 619/563/4 618/562/4
f 477/705/4 456/693/4 620/564/4 619/563/4
f 456/693/4 439/692/4 617/561/4 620/564/4
f 456/693/4 477/705/4 622/566/4 621/565/4
f 477/705/4 478/703/4 623/567/4 622/566/4
f 478/703/4 455/666/4 624/568/4 623/567/4
f 455/666/4 456/693/4 621/565/4 624/568/4
f 454/704/4 453/656/4 626/570/4 625/569/4
f 453/656/4 479/706/4 627/571/4 626/570/4
f 479/706/4 477/705/4 628/572/4 627/571/4
f 477/705/4 454/704/4 625/569/4 628/572/4
f 477/705/4 479/706/4 630/574/4 629/573/4
f 479/706/4 480/657/4 631/575/4 630/574/4
f 480/657/4 478/703/4 632/576/4 631/575/4
f 478/703/4 477/705/4 629/573/4 632/576/4
f 453/656/4 440/655/4 634/578/4 633/577/4
f 440/655/4 457/677/4 635/579/4 634/578/4
f 457/677/4 479/706/4 636/580/4 635/579/4
f 479/706/4 453/656/4 633/577/4 636/580/4
f 479/706/4 457/677/4 638/582/4 637/581/4
f 457/677/4 458/658/4 639/583/4 638/582/4
f 458/658/4 480/657/4 640/584/4 639/583/4
f 480/657/4 479/706/4 637/581/4 640/584/4
f 449/707/3 482/708/3 642/586/3 641/585/3
f 482/708/3 454/704/3 643/587/3 642/586/3
f 454/704/3 439/692/3 644/588/3 643/587/3
f 439/692/3 449/707/3 641/585/3 644/588/3
f 482/708/3 484/653/3 646/590/3 645/589/3
f 484/653/3 453/656/3 647/591/3 646/590/3
f 453/656/3 454/704/3 648/592/3 647/591/3
f 454/704/3 482/708/3 645/589/3 648/592/3
f 435/709/3 448/710/3 650/594/3 649/593/3
f 448/710/3 481/711/3 651/595/3 650/594/3
f 481/711/3 450/712/3 652/596/3 651/595/3
f 450/712/3 435/709/3 649/593/3 652/596/3
f 450/712/3 481/711/3 654/598/3 653/597/3
f 481/711/3 482/708/3 655/599/3 654/598/3
f 482/708/3 449/707/3 656/600/3 655/599/3
f 449/707/3 450/712/3 653/597/3 656/600/3
f 448/710/3 447/652/3 658/602/3 657/601/3
f 447/652/3 483/713/3 659/603/3 658/602/3
f 483/713/3 481/711/3 660/604/3 659/603/3
f 481/711/3 448/710/3 657/601/3 660/604/3
f 481/711/3 483/713/3 662/606/3 661/605/3
f 483/713/3 484/653/3 663/607/3 662/606/3
f 484/653/3 482/708/3 664/608/3 663/607/3
f 482/708/3 481/711/3 661/605/3 664/608/3
f 447/652/3 436/651/3 666/610/3 665/609/3
f 436/651/3 451/714/3 667/611/3 666/610/3
f 451/714/3 483/713/3 668/612/3 667/611/3
f 483/713/3 447/652/3 665/609/3 668/612/3
f 483/713/3 451/714/3 670/614/3 669/613/3
f 451/714/3 452/654/3 671/615/3 670/614/3
f 452/654/3 484/653/3 672/616/3 671/615/3
f 484/653/3 483/713/3 669/613/3 672/616/3
f 441/715/5 486/716/5 674/618/5 673/617/5
f 486/716/5 448/710/5 675/619/5 674/618/5
f 448/710/5 435/709/5 676/620/5 675/619/5
f 435/709/5 441/715/5 673/617/5 676/620/5
f 486/716/5 488/649/5 678/622/5 677/621/5
f 488/649/5 447/652/5 679/623/5 678/622/5
f 447/652/5 448/710/5 680/624/5 679/623/5
f 448/710/5 486/716/5 677/621/5 680/624/5
f 433/717/5 443/718/5 682/626/5 681/625/5
f 443/718/5 485/719/5 683/627/5 682/626/5
f 485/719/5 442/720/5 684/628/5 683/627/5
f 442/720/5 433/717/5 681/625/5 684/628/5
f 442/720/5 485/719/5 686/630/5 685/629/5
f 485/719/5 486/716/5 687/631/5 686/630/5
f 486/716/5 441/715/5 688/632/5 687/631/5
f 441/715/5 442/720/5 685/629/5 688/632/5
f 443/718/5 444/721/5 690/634/5 689/633/5
f 444/721/5 487/722/5 691/635/5 690/634/5
f 487/722/5 485/719/5 692/636/5 691/635/5
f 485/719/5 443/718/5 689/633/5 692/636/5
f 485/719/5 487/722/5 694/638/5 693/637/5
f 487/722/5 488/649/5 695/639/5 694/638/5
f 488/649/5 486/716/5 696/640/5 695/639/5
f 486/716/5 485/719/5 693/637/5 696/640/5
f 444/721/5 434/723/5 698/642/5 697/641/5
f 434/723/5 445/724/5 699/643/5 698/642/5
f 445/724/5 487/722/5 700/644/5 699/643/5
f 487/722/5 444/721/5 697/641/5 700/644/5
f 487/722/5 445/724/5 702/646/5 701/645/5
f 445/724/5 446/650/5 703/647/5 702/646/5
f 446/650/5 488/649/5 704/648/5 703/647/5
f 488/649/5 487/722/5 701/645/5 704/648/5
